<svg
    width="32px"
    height="32px"
    viewBox="0 0 32 32"
    xmlns="http://www.w3.org/2000/svg"
    >
    <path
        d="M25.5 15H19V8.5c0-.3-.2-.5-.5-.5h-13c-.3 0-.5.2-.5.5v16c0 .3.2.5.5.5h13c.3 0 .5-.2.5-.5V18h6.5c.8 0 1.5-.7 1.5-1.5s-.7-1.5-1.5-1.5zm0 2H10.7c1.2 1 4.1 4.1 4.1 4.1.2.2.2.5 0 .7s-.5.2-.7 0l-5-5c-.2-.2-.2-.5 0-.7l5-5c.2-.2.5-.2.7 0s.2.5 0 .7L10.7 16h14.8c.3 0 .5.2.5.5s-.2.5-.5.5z"
        clip-rule="evenodd"
        fill="currentColor"
        fill-rule="evenodd"
    ></path>
</svg>