
<svg xmlns="http://www.w3.org/2000/svg" viewBox="-21978.881 29.847 20.881 19.953">
	<path d="M20.881,12.239v7.714H16.415V12.761c0-1.8-.638-3.045-2.262-3.045a2.445,2.445,0,0,0-2.291,1.624,3.175,3.175,0,0,0-.145,1.1v7.511h-4.5s.058-12.209,0-13.457h4.466V8.41c0,.029-.029.029-.029.058h.029V8.41a4.438,4.438,0,0,1,4.031-2.233c2.958,0,5.162,1.914,5.162,6.061ZM2.523,0A2.345,2.345,0,0,0,0,2.32,2.311,2.311,0,0,0,2.465,4.64h.029A2.328,2.328,0,0,0,5.017,2.32,2.3,2.3,0,0,0,2.523,0ZM.261,19.953H4.727V6.5H.261Zm0,0" transform="translate(-21978.881 29.847)"/>
</svg>