
<svg xmlns="http://www.w3.org/2000/svg" xmlns:xlink="http://www.w3.org/1999/xlink" viewBox="-18128.258 10794.689 20.457 16.62">
  <defs>
    <style>
      .tw-cls-1 {
        clip-path: url(#tw-clip-path);
      }

      .tw-cls-2 {
        clip-path: url(#tw-clip-path-2);
      }

    </style>
    <clipPath id="tw-clip-path">
      <path d="M344.056,21.673a2.173,2.173,0,0,1-2.046,0c.852-.511.895-.895,1.193-1.875a9.455,9.455,0,0,1-2.642,1.023,4.131,4.131,0,0,0-7.16,2.855,3.323,3.323,0,0,0,.128.938,11.6,11.6,0,0,1-8.523-4.39,4.4,4.4,0,0,0-.554,2.131,4.241,4.241,0,0,0,1.833,3.495,4.542,4.542,0,0,1-1.875-.511v.043a4.252,4.252,0,0,0,3.324,4.134,3.971,3.971,0,0,1-1.875.085,4.079,4.079,0,0,0,3.878,2.9,8.285,8.285,0,0,1-6.137,1.747,11.573,11.573,0,0,0,6.35,1.875c7.628,0,11.762-6.393,11.762-11.933v-.554a9.563,9.563,0,0,0,2.344-1.96" transform="translate(-323.6 -19.5)"/>
    </clipPath>
    <clipPath id="tw-clip-path-2">
      <rect  width="20.456" height="17.899" transform="translate(0 0)"/>
    </clipPath>
  </defs>
  <g transform="translate(-18128.259 10794.69)">
    <g class="tw-cls-1">
      <g class="tw-cls-2" transform="translate(0 -1.279)">
        <rect class="cls-3" width="33.241" height="29.406" transform="translate(-6.393 -5.114)"/>
      </g>
    </g>
  </g>
</svg>